<?xml version="1.0" standalone="no"?>
<!DOCTYPE svg PUBLIC "-//W3C//DTD SVG 20010904//EN"
 "http://www.w3.org/TR/2001/REC-SVG-20010904/DTD/svg10.dtd">
<svg version="1.0" xmlns="http://www.w3.org/2000/svg"
 width="700.000000pt" height="700.000000pt" viewBox="0 0 700.000000 700.000000"
 preserveAspectRatio="xMidYMid meet">
<metadata>
Created by potrace 1.11, written by Peter Selinger 2001-2013
</metadata>
<g transform="translate(0.000000,700.000000) scale(0.100000,-0.100000)"
fill="#000000" stroke="none">
<path d="M3298 6995 c-1 -1 -41 -5 -88 -9 -100 -7 -225 -22 -295 -36 -27 -5
-61 -12 -75 -14 -491 -90 -1015 -319 -1415 -619 -103 -77 -159 -121 -165 -128
-3 -3 -42 -38 -86 -77 -438 -384 -792 -915 -985 -1479 -33 -98 -81 -260 -95
-326 -20 -90 -53 -272 -59 -322 -4 -33 -9 -69 -11 -80 -19 -100 -26 -567 -11
-715 15 -139 33 -260 62 -410 20 -102 99 -387 124 -445 5 -11 14 -36 21 -55 7
-19 16 -44 20 -55 243 -591 553 -1016 1050 -1439 204 -174 553 -384 840 -506
191 -81 499 -178 648 -205 16 -2 64 -12 108 -20 43 -8 106 -18 139 -21 33 -3
63 -8 66 -9 29 -18 532 -26 709 -12 111 9 120 10 310 43 1546 264 2743 1573
2878 3149 14 164 7 569 -13 705 -3 19 -7 56 -10 81 -3 25 -7 54 -9 65 -2 10
-11 60 -21 109 -128 685 -485 1345 -992 1835 -145 140 -184 175 -305 268 -373
287 -791 494 -1248 616 -171 46 -273 64 -560 102 -47 6 -526 15 -532 9z m422
-520 c147 -11 249 -27 462 -70 193 -39 518 -162 723 -274 187 -101 399 -244
512 -345 16 -15 38 -33 49 -40 18 -14 17 -17 -26 -68 -81 -98 -162 -181 -305
-313 -83 -76 -319 -250 -459 -337 -124 -78 -407 -227 -526 -277 -115 -50 -220
-91 -229 -91 -9 0 -21 20 -89 140 -70 125 -146 257 -183 316 -23 38 -47 78
-53 89 -6 11 -47 78 -91 148 -44 70 -87 139 -95 153 -35 57 -201 309 -290 437
-52 76 -99 145 -105 154 -5 9 -14 22 -18 27 -76 103 -194 277 -189 280 9 5 83
21 142 30 198 33 209 34 385 42 77 4 141 7 142 8 4 3 174 -3 243 -9z m-1452
-327 c130 -178 453 -656 574 -852 28 -44 69 -110 93 -146 48 -75 315 -518 315
-524 0 -2 18 -34 40 -70 22 -36 40 -69 40 -74 0 -6 -178 -56 -276 -77 -10 -2
-71 -15 -134 -30 -178 -40 -346 -73 -535 -104 -103 -17 -155 -25 -305 -46 -14
-2 -44 -6 -68 -10 -53 -8 -72 -11 -147 -19 -33 -4 -73 -9 -90 -11 -28 -4 -112
-13 -195 -20 -19 -2 -55 -6 -80 -9 -25 -3 -83 -8 -130 -11 -47 -3 -112 -8
-145 -10 -108 -9 -257 -15 -456 -20 l-196 -5 22 92 c31 129 63 235 86 285 10
24 19 47 19 53 0 30 131 311 203 435 88 153 216 337 302 435 148 168 267 286
399 393 188 154 307 232 551 364 33 17 63 32 67 32 4 1 25 -23 46 -51z m3594
-825 c378 -484 600 -1095 623 -1716 l3 -78 -37 5 c-20 3 -86 14 -147 25 -61
11 -137 23 -170 26 -32 3 -66 8 -74 10 -13 3 -35 6 -155 20 -86 10 -174 18
-205 20 -19 1 -87 6 -150 11 -63 5 -266 9 -450 9 -311 0 -431 -4 -585 -22
-114 -12 -106 -16 -138 62 -45 109 -125 290 -179 404 -27 57 -46 107 -41 112
4 4 61 30 125 58 376 164 773 407 1071 656 168 141 403 377 440 441 13 23 22
17 69 -43z m-2204 -1470 c71 -144 162 -339 162 -347 0 -2 -28 -11 -62 -21
-169 -47 -459 -166 -638 -262 -162 -86 -210 -113 -233 -127 -93 -58 -270 -175
-303 -200 -23 -17 -55 -40 -70 -51 -30 -21 -225 -176 -234 -185 -3 -3 -43 -39
-90 -80 -175 -154 -385 -374 -569 -595 -66 -79 -163 -212 -246 -335 -54 -80
-100 -145 -101 -145 -7 0 -109 124 -173 210 -303 403 -509 914 -567 1400 -3
28 -8 61 -10 75 -3 14 -8 109 -11 211 l-6 186 149 0 c136 1 412 10 524 18 191
13 330 23 390 30 57 7 165 18 285 30 33 3 71 8 85 10 14 3 52 7 85 10 33 4 67
8 75 10 8 2 35 7 60 10 25 3 88 13 140 22 52 8 109 17 125 19 17 3 91 16 165
30 74 15 146 28 160 31 164 30 558 126 725 177 44 13 86 24 93 25 7 1 47 -70
90 -156z m1888 -667 c16 -3 58 -8 94 -11 36 -3 83 -8 105 -11 22 -3 58 -7 80
-10 177 -22 582 -111 610 -134 9 -8 11 -19 6 -33 -5 -12 -12 -44 -16 -72 -31
-211 -148 -549 -275 -791 -152 -290 -317 -514 -550 -744 -146 -144 -252 -234
-390 -327 l-46 -31 -17 96 c-21 120 -20 117 -58 293 -17 79 -32 153 -34 164
-10 45 -116 462 -124 485 -5 14 -21 70 -36 125 -50 189 -159 535 -260 823 -25
74 -44 136 -42 138 6 6 31 11 102 19 33 4 71 9 85 11 14 2 72 7 130 10 58 4
106 8 108 9 6 5 501 -3 528 -9z m-1433 -394 c83 -233 207 -602 231 -692 8 -30
33 -118 56 -195 33 -114 157 -593 174 -678 3 -12 23 -114 45 -227 23 -113 43
-215 46 -228 5 -19 -1 -25 -42 -43 -104 -45 -338 -120 -420 -135 -12 -2 -33
-8 -45 -13 -13 -5 -27 -9 -33 -10 -13 -1 -86 -12 -105 -15 -8 -2 -31 -6 -50
-10 -120 -22 -248 -31 -475 -31 -194 0 -283 5 -390 20 -16 3 -46 7 -65 9 -71
10 -232 45 -340 74 -348 95 -731 287 -1028 518 -4 3 45 100 68 134 9 14 38 59
65 100 116 182 260 355 465 561 332 333 681 584 1125 809 225 114 582 267 630
269 6 0 45 -97 88 -217z"/>
</g>
</svg>
