<svg xmlns="http://www.w3.org/2000/svg" viewBox="0 0 512 512"><path d="M181.341 0C81.352 0 .008 81.344.008 181.333s81.344 181.333 181.333 181.333 181.333-81.344 181.333-181.333S281.331 0 181.341 0zm0 341.333c-88.235 0-160-71.765-160-160s71.765-160 160-160 160 71.765 160 160-71.765 160-160 160z"/><path d="M508.872 493.803L309.555 294.485c-4.16-4.16-10.923-4.16-15.083 0s-4.16 10.923 0 15.083l199.317 199.317a10.716 10.716 0 0 0 7.552 3.115c2.731 0 5.461-1.045 7.531-3.115 4.16-4.16 4.16-10.922 0-15.082z"/></svg>